<svg xmlns="http://www.w3.org/2000/svg" width="1600" height="1050" viewBox="0 0 1600 1050" role="img" aria-label="四渡赤水原创地形沙盘图，非百度或Google地图截图">
<defs>
<marker id="arrowR" markerWidth="14" markerHeight="14" refX="11" refY="5" orient="auto"><path d="M0,0 L12,5 L0,10 Z" fill="#e64c3c"/></marker>
<marker id="arrowB" markerWidth="12" markerHeight="12" refX="10" refY="4" orient="auto"><path d="M0,0 L10,4 L0,8 Z" fill="#3e8edb"/></marker>
<filter id="soft"><feGaussianBlur stdDeviation="3" result="b"/><feMerge><feMergeNode in="b"/><feMergeNode in="SourceGraphic"/></feMerge></filter>
<filter id="shadow" x="-20%" y="-20%" width="140%" height="140%"><feDropShadow dx="0" dy="7" stdDeviation="8" flood-color="#000" flood-opacity=".35"/></filter>
<linearGradient id="bg" x1="0" x2="1" y1="0" y2="1"><stop offset="0" stop-color="#2b2217"/><stop offset=".42" stop-color="#324327"/><stop offset=".72" stop-color="#7d6a3c"/><stop offset="1" stop-color="#3a2317"/></linearGradient>
<radialGradient id="light" cx="35%" cy="18%" r="75%"><stop offset="0" stop-color="rgba(255,232,166,.28)"/><stop offset=".52" stop-color="rgba(255,232,166,.04)"/><stop offset="1" stop-color="rgba(0,0,0,.25)"/></radialGradient>
<pattern id="grain" width="180" height="180" patternUnits="userSpaceOnUse"><path d="M0 70 C45 28 92 122 180 45" stroke="rgba(255,255,255,.055)" stroke-width="2" fill="none"/><path d="M-20 145 C58 82 110 190 200 120" stroke="rgba(0,0,0,.14)" stroke-width="2" fill="none"/></pattern>
</defs>
<rect width="1600" height="1050" fill="url(#bg)"/>
<rect width="1600" height="1050" fill="url(#light)"/>
<path d="M -80.0,155.0 L 80.0,178.8 L 240.0,148.5 L 400.0,121.5 L 560.0,107.4 L 720.0,81.4 L 880.0,66.0 L 1040.0,110.7 L 1200.0,190.0 L 1360.0,204.9 L 1520.0,119.9 L 1680.0,31.1 L 1700.0,1140.0 L -100.0,1140.0 Z" fill="#6e3d22" opacity="0.23"/><path d="M -80.0,316.9 L 80.0,310.7 L 240.0,240.5 L 400.0,197.0 L 560.0,203.6 L 720.0,218.3 L 880.0,229.4 L 1040.0,264.4 L 1200.0,305.7 L 1360.0,286.3 L 1520.0,199.3 L 1680.0,142.4 L -100.0,-60.0 L 1700.0,-60.0 Z" fill="#8b5a2b" opacity="0.17"/><path d="M -80.0,459.1 L 80.0,412.2 L 240.0,316.8 L 400.0,284.7 L 560.0,329.7 L 720.0,377.8 L 880.0,389.2 L 1040.0,391.2 L 1200.0,393.9 L 1360.0,362.4 L 1520.0,300.1 L 1680.0,284.0 L 1700.0,1140.0 L -100.0,1140.0 Z" fill="#4f6531" opacity="0.18"/><path d="M -80.0,571.1 L 80.0,491.9 L 240.0,397.8 L 400.0,399.7 L 560.0,482.8 L 720.0,541.3 L 880.0,526.7 L 1040.0,488.0 L 1200.0,469.4 L 1360.0,453.8 L 1520.0,431.3 L 1680.0,445.6 L -100.0,-60.0 L 1700.0,-60.0 Z" fill="#2f5030" opacity="0.2"/><path d="M -80.0,656.8 L 80.0,568.8 L 240.0,502.0 L 400.0,544.4 L 560.0,647.4 L 720.0,688.4 L 880.0,633.7 L 1040.0,565.8 L 1200.0,553.3 L 1360.0,574.0 L 1520.0,587.7 L 1680.0,607.7 L 1700.0,1140.0 L -100.0,1140.0 Z" fill="#4d2b1c" opacity="0.22"/>
<rect width="1600" height="1050" fill="url(#grain)" opacity=".9"/>
<path d="M -50.0,69.4 L 50.0,118.8 L 150.0,106.5 L 250.0,76.2 L 350.0,67.6 L 450.0,46.2 L 550.0,17.9 L 650.0,44.5 L 750.0,105.6 L 850.0,117.7 L 950.0,85.6 L 1050.0,69.9 L 1150.0,58.0 L 1250.0,25.5 L 1350.0,26.0 L 1450.0,83.5 L 1550.0,121.3 L 1650.0,98.8" fill="none" stroke="rgba(255,239,190,.10)" stroke-width="1.25"/><path d="M -50.0,116.8 L 50.0,152.5 L 150.0,122.2 L 250.0,85.9 L 350.0,79.5 L 450.0,64.9 L 550.0,52.0 L 650.0,91.8 L 750.0,146.5 L 850.0,139.4 L 950.0,96.2 L 1050.0,80.5 L 1150.0,73.2 L 1250.0,52.7 L 1350.0,69.7 L 1450.0,129.5 L 1550.0,150.6 L 1650.0,112.1" fill="none" stroke="rgba(255,239,190,.10)" stroke-width="1.25"/><path d="M -50.0,158.1 L 50.0,175.1 L 150.0,128.9 L 250.0,92.8 L 350.0,94.0 L 450.0,89.2 L 550.0,89.9 L 650.0,136.0 L 750.0,177.6 L 850.0,150.6 L 950.0,101.4 L 1050.0,91.8 L 1150.0,93.2 L 1250.0,85.2 L 1350.0,113.5 L 1450.0,167.8 L 1550.0,168.7 L 1650.0,117.5" fill="none" stroke="rgba(255,239,190,.10)" stroke-width="1.25"/><path d="M -50.0,208.0 L 50.0,204.2 L 150.0,147.1 L 250.0,118.1 L 350.0,131.1 L 450.0,136.1 L 550.0,146.2 L 650.0,191.4 L 750.0,215.0 L 850.0,170.7 L 950.0,122.5 L 1050.0,124.5 L 1150.0,136.2 L 1250.0,138.2 L 1350.0,171.4 L 1450.0,213.7 L 1550.0,194.0 L 1650.0,136.1" fill="none" stroke="rgba(255,239,190,.10)" stroke-width="1.25"/><path d="M -50.0,223.9 L 50.0,200.7 L 150.0,139.7 L 250.0,124.1 L 350.0,150.4 L 450.0,162.6 L 550.0,176.4 L 650.0,214.3 L 750.0,218.3 L 850.0,162.2 L 950.0,122.3 L 1050.0,139.5 L 1150.0,160.4 L 1250.0,167.7 L 1350.0,199.0 L 1450.0,225.1 L 1550.0,187.7 L 1650.0,130.6" fill="none" stroke="rgba(255,239,190,.10)" stroke-width="1.25"/><path d="M -50.0,252.9 L 50.0,214.5 L 150.0,157.5 L 250.0,159.9 L 350.0,198.2 L 450.0,212.7 L 550.0,224.2 L 650.0,250.4 L 750.0,236.5 L 850.0,175.8 L 950.0,150.8 L 1050.0,184.0 L 1150.0,210.2 L 1250.0,217.1 L 1350.0,241.2 L 1450.0,250.0 L 1550.0,200.4 L 1650.0,151.9" fill="none" stroke="rgba(255,239,190,.10)" stroke-width="1.25"/><path d="M -50.0,273.1 L 50.0,226.0 L 150.0,180.5 L 250.0,202.6 L 350.0,248.5 L 450.0,259.5 L 550.0,263.8 L 650.0,276.9 L 750.0,249.4 L 850.0,192.0 L 950.0,186.4 L 1050.0,233.3 L 1150.0,259.0 L 1250.0,259.9 L 1350.0,273.6 L 1450.0,267.1 L 1550.0,212.7 L 1650.0,179.3" fill="none" stroke="rgba(255,239,190,.10)" stroke-width="1.25"/><path d="M -50.0,269.7 L 50.0,221.3 L 150.0,192.8 L 250.0,233.0 L 350.0,280.3 L 450.0,281.8 L 550.0,276.2 L 650.0,277.7 L 750.0,242.9 L 850.0,196.0 L 950.0,211.1 L 1050.0,266.6 L 1150.0,285.4 L 1250.0,276.2 L 1350.0,279.2 L 1450.0,261.9 L 1550.0,210.3 L 1650.0,196.3" fill="none" stroke="rgba(255,239,190,.10)" stroke-width="1.25"/><path d="M -50.0,286.3 L 50.0,243.5 L 150.0,234.7 L 250.0,288.6 L 350.0,329.8 L 450.0,317.6 L 550.0,302.2 L 650.0,296.1 L 750.0,260.9 L 850.0,229.5 L 950.0,263.5 L 1050.0,320.5 L 1150.0,326.3 L 1250.0,305.6 L 1350.0,300.3 L 1450.0,278.3 L 1550.0,236.0 L 1650.0,242.5" fill="none" stroke="rgba(255,239,190,.10)" stroke-width="1.25"/><path d="M -50.0,299.3 L 50.0,267.3 L 150.0,277.6 L 250.0,338.4 L 350.0,366.7 L 450.0,338.9 L 550.0,316.6 L 650.0,308.3 L 750.0,278.8 L 850.0,265.1 L 950.0,313.3 L 1050.0,363.9 L 1150.0,352.9 L 1250.0,321.9 L 1350.0,312.9 L 1450.0,292.5 L 1550.0,263.8 L 1650.0,288.7" fill="none" stroke="rgba(255,239,190,.10)" stroke-width="1.25"/><path d="M -50.0,308.0 L 50.0,289.4 L 150.0,315.3 L 250.0,374.9 L 350.0,385.1 L 450.0,343.1 L 550.0,318.9 L 650.0,314.2 L 750.0,294.5 L 850.0,297.7 L 950.0,353.0 L 1050.0,390.2 L 1150.0,361.0 L 1250.0,323.8 L 1350.0,317.0 L 1450.0,303.3 L 1550.0,289.7 L 1650.0,328.0" fill="none" stroke="rgba(255,239,190,.10)" stroke-width="1.25"/><path d="M -50.0,338.8 L 50.0,333.2 L 150.0,368.8 L 250.0,419.8 L 350.0,409.4 L 450.0,357.2 L 550.0,337.5 L 650.0,341.2 L 750.0,332.8 L 850.0,348.9 L 950.0,403.7 L 1050.0,422.5 L 1150.0,377.0 L 1250.0,339.7 L 1350.0,340.6 L 1450.0,336.5 L 1550.0,336.4 L 1650.0,381.4" fill="none" stroke="rgba(255,239,190,.10)" stroke-width="1.25"/><path d="M -50.0,377.0 L 50.0,381.1 L 150.0,419.5 L 250.0,455.9 L 350.0,425.8 L 450.0,370.0 L 550.0,360.9 L 650.0,375.6 L 750.0,377.0 L 850.0,400.4 L 950.0,447.5 L 1050.0,445.6 L 1150.0,388.8 L 1250.0,358.2 L 1350.0,371.0 L 1450.0,376.8 L 1550.0,386.1 L 1650.0,430.5" fill="none" stroke="rgba(255,239,190,.10)" stroke-width="1.25"/><path d="M -50.0,411.9 L 50.0,420.7 L 150.0,455.3 L 250.0,473.9 L 350.0,428.0 L 450.0,376.1 L 550.0,382.4 L 650.0,407.9 L 750.0,415.2 L 850.0,439.4 L 950.0,473.6 L 1050.0,452.1 L 1150.0,390.9 L 1250.0,373.7 L 1350.0,400.0 L 1450.0,413.0 L 1550.0,426.0 L 1650.0,463.4" fill="none" stroke="rgba(255,239,190,.10)" stroke-width="1.25"/><path d="M -50.0,458.3 L 50.0,466.0 L 150.0,491.7 L 250.0,492.4 L 350.0,437.0 L 450.0,396.5 L 550.0,420.6 L 650.0,453.8 L 750.0,461.5 L 850.0,480.6 L 950.0,499.4 L 1050.0,462.5 L 1150.0,404.9 L 1250.0,405.6 L 1350.0,444.1 L 1450.0,459.5 L 1550.0,470.3 L 1650.0,496.4" fill="none" stroke="rgba(255,239,190,.10)" stroke-width="1.25"/><path d="M -50.0,491.0 L 50.0,492.2 L 150.0,506.4 L 250.0,492.2 L 350.0,435.1 L 450.0,411.8 L 550.0,452.6 L 650.0,488.1 L 750.0,490.5 L 850.0,500.7 L 950.0,504.5 L 1050.0,458.6 L 1150.0,412.0 L 1250.0,432.5 L 1350.0,479.1 L 1450.0,490.9 L 1550.0,494.5 L 1650.0,507.8" fill="none" stroke="rgba(255,239,190,.10)" stroke-width="1.25"/><path d="M -50.0,530.1 L 50.0,521.3 L 150.0,524.5 L 250.0,500.6 L 350.0,449.3 L 450.0,446.4 L 550.0,500.1 L 650.0,531.2 L 750.0,523.4 L 850.0,523.4 L 950.0,515.7 L 1050.0,468.1 L 1150.0,438.1 L 1250.0,477.1 L 1350.0,525.4 L 1450.0,527.8 L 1550.0,521.5 L 1650.0,523.2" fill="none" stroke="rgba(255,239,190,.10)" stroke-width="1.25"/><path d="M -50.0,559.3 L 50.0,539.6 L 150.0,534.8 L 250.0,507.8 L 350.0,468.2 L 450.0,485.7 L 550.0,545.9 L 650.0,566.0 L 750.0,545.4 L 850.0,536.8 L 950.0,522.8 L 1050.0,480.4 L 1150.0,470.0 L 1250.0,523.0 L 1350.0,565.7 L 1450.0,554.2 L 1550.0,538.0 L 1650.0,532.1" fill="none" stroke="rgba(255,239,190,.10)" stroke-width="1.25"/><path d="M -50.0,588.9 L 50.0,560.3 L 150.0,552.5 L 250.0,528.5 L 350.0,504.4 L 450.0,539.0 L 550.0,598.0 L 650.0,601.7 L 750.0,568.5 L 850.0,555.2 L 950.0,541.1 L 1050.0,509.2 L 1150.0,517.9 L 1250.0,578.2 L 1350.0,608.3 L 1450.0,581.1 L 1550.0,557.8 L 1650.0,549.7" fill="none" stroke="rgba(255,239,190,.10)" stroke-width="1.25"/><path d="M -50.0,611.0 L 50.0,578.1 L 150.0,573.2 L 250.0,557.0 L 350.0,548.9 L 450.0,594.8 L 550.0,644.7 L 650.0,629.2 L 750.0,586.6 L 850.0,574.4 L 950.0,565.6 L 1050.0,546.9 L 1150.0,571.1 L 1250.0,630.9 L 1350.0,643.0 L 1450.0,601.2 L 1550.0,575.9 L 1650.0,571.5" fill="none" stroke="rgba(255,239,190,.10)" stroke-width="1.25"/><path d="M -50.0,615.1 L 50.0,584.2 L 150.0,587.4 L 250.0,581.5 L 350.0,586.8 L 450.0,636.8 L 550.0,671.4 L 650.0,636.9 L 750.0,590.5 L 850.0,585.3 L 950.0,585.5 L 1050.0,579.6 L 1150.0,613.8 L 1250.0,665.4 L 1350.0,656.9 L 1450.0,604.5 L 1550.0,583.6 L 1650.0,587.6" fill="none" stroke="rgba(255,239,190,.10)" stroke-width="1.25"/><path d="M -50.0,624.6 L 50.0,602.4 L 150.0,617.3 L 250.0,621.1 L 350.0,635.1 L 450.0,681.8 L 550.0,697.2 L 650.0,647.2 L 750.0,604.1 L 850.0,611.0 L 950.0,621.3 L 1050.0,625.1 L 1150.0,662.4 L 1250.0,699.8 L 1350.0,671.4 L 1450.0,614.9 L 1550.0,604.5 L 1650.0,619.6" fill="none" stroke="rgba(255,239,190,.10)" stroke-width="1.25"/><path d="M -50.0,625.8 L 50.0,618.1 L 150.0,645.6 L 250.0,655.9 L 350.0,672.6 L 450.0,710.0 L 550.0,705.6 L 650.0,646.1 L 750.0,613.5 L 850.0,635.2 L 950.0,653.9 L 1050.0,662.4 L 1150.0,696.1 L 1250.0,716.0 L 1350.0,671.5 L 1450.0,618.5 L 1550.0,623.5 L 1650.0,649.6" fill="none" stroke="rgba(255,239,190,.10)" stroke-width="1.25"/><path d="M -50.0,643.5 L 50.0,654.1 L 150.0,692.0 L 250.0,703.8 L 350.0,717.3 L 450.0,741.7 L 550.0,719.8 L 650.0,658.7 L 750.0,642.4 L 850.0,679.0 L 950.0,701.8 L 1050.0,709.1 L 1150.0,734.2 L 1250.0,736.3 L 1350.0,681.9 L 1450.0,639.9 L 1550.0,662.8 L 1650.0,696.9" fill="none" stroke="rgba(255,239,190,.10)" stroke-width="1.25"/><path d="M -50.0,652.5 L 50.0,682.2 L 150.0,725.8 L 250.0,733.0 L 350.0,738.7 L 450.0,749.4 L 550.0,715.3 L 650.0,660.3 L 750.0,664.0 L 850.0,712.4 L 950.0,733.3 L 1050.0,734.1 L 1150.0,748.0 L 1250.0,735.2 L 1350.0,678.5 L 1450.0,653.5 L 1550.0,693.5 L 1650.0,730.2" fill="none" stroke="rgba(255,239,190,.10)" stroke-width="1.25"/><path d="M -50.0,683.8 L 50.0,730.1 L 150.0,772.8 L 250.0,770.0 L 350.0,765.8 L 450.0,764.8 L 550.0,725.3 L 650.0,683.1 L 750.0,707.1 L 850.0,761.6 L 950.0,774.4 L 1050.0,765.2 L 1150.0,768.0 L 1250.0,745.5 L 1350.0,694.1 L 1450.0,689.3 L 1550.0,742.7 L 1650.0,775.2" fill="none" stroke="rgba(255,239,190,.10)" stroke-width="1.25"/><path d="M -50.0,726.9 L 50.0,784.5 L 150.0,819.1 L 250.0,802.7 L 350.0,789.1 L 450.0,781.0 L 550.0,743.0 L 650.0,717.9 L 750.0,759.5 L 850.0,812.9 L 950.0,812.0 L 1050.0,791.8 L 1150.0,786.7 L 1250.0,760.8 L 1350.0,720.9 L 1450.0,736.5 L 1550.0,796.8 L 1650.0,818.5" fill="none" stroke="rgba(255,239,190,.10)" stroke-width="1.25"/><path d="M -50.0,771.7 L 50.0,833.4 L 150.0,853.4 L 250.0,822.3 L 350.0,802.8 L 450.0,793.3 L 550.0,762.6 L 650.0,756.0 L 750.0,809.5 L 850.0,854.1 L 950.0,836.4 L 1050.0,807.0 L 1150.0,799.0 L 1250.0,775.9 L 1350.0,751.1 L 1450.0,784.0 L 1550.0,843.6 L 1650.0,849.0" fill="none" stroke="rgba(255,239,190,.10)" stroke-width="1.25"/><path d="M -50.0,814.8 L 50.0,872.5 L 150.0,873.6 L 250.0,829.8 L 350.0,809.7 L 450.0,804.5 L 550.0,784.8 L 650.0,794.8 L 750.0,852.9 L 850.0,882.1 L 950.0,847.1 L 1050.0,813.2 L 1150.0,808.1 L 1250.0,792.7 L 1350.0,783.7 L 1450.0,828.2 L 1550.0,879.2 L 1650.0,865.3" fill="none" stroke="rgba(255,239,190,.10)" stroke-width="1.25"/><path d="M -50.0,857.6 L 50.0,904.1 L 150.0,884.8 L 250.0,833.0 L 350.0,818.6 L 450.0,822.2 L 550.0,814.2 L 650.0,836.3 L 750.0,891.2 L 850.0,900.8 L 950.0,851.3 L 1050.0,819.1 L 1150.0,822.2 L 1250.0,816.9 L 1350.0,821.3 L 1450.0,870.3 L 1550.0,906.3 L 1650.0,873.2" fill="none" stroke="rgba(255,239,190,.10)" stroke-width="1.25"/><path d="M -50.0,905.0 L 50.0,935.1 L 150.0,897.1 L 250.0,844.3 L 350.0,841.4 L 450.0,855.7 L 550.0,857.4 L 650.0,885.4 L 750.0,930.2 L 850.0,919.0 L 950.0,860.7 L 1050.0,836.9 L 1150.0,851.8 L 1250.0,856.3 L 1350.0,869.4 L 1450.0,915.5 L 1550.0,932.6 L 1650.0,883.6" fill="none" stroke="rgba(255,239,190,.10)" stroke-width="1.25"/><path d="M -50.0,942.1 L 50.0,953.4 L 150.0,901.7 L 250.0,855.3 L 350.0,868.0 L 450.0,892.2 L 550.0,899.2 L 650.0,926.5 L 750.0,956.7 L 850.0,926.9 L 950.0,866.9 L 1050.0,857.6 L 1150.0,885.3 L 1250.0,896.3 L 1350.0,912.2 L 1450.0,949.4 L 1550.0,946.7 L 1650.0,887.8" fill="none" stroke="rgba(255,239,190,.10)" stroke-width="1.25"/><path d="M -50.0,973.2 L 50.0,966.5 L 150.0,907.9 L 250.0,875.0 L 350.0,904.7 L 450.0,935.2 L 550.0,941.9 L 650.0,963.0 L 750.0,976.8 L 850.0,933.2 L 950.0,879.6 L 1050.0,888.7 L 1150.0,927.1 L 1250.0,939.6 L 1350.0,952.2 L 1450.0,976.8 L 1550.0,956.6 L 1650.0,895.5" fill="none" stroke="rgba(255,239,190,.10)" stroke-width="1.25"/><path d="M -50.0,1003.3 L 50.0,982.5 L 150.0,924.8 L 250.0,910.5 L 350.0,955.6 L 450.0,986.6 L 550.0,987.4 L 650.0,998.8 L 750.0,997.6 L 850.0,947.1 L 950.0,906.9 L 1050.0,935.2 L 1150.0,979.7 L 1250.0,987.7 L 1350.0,992.6 L 1450.0,1003.6 L 1550.0,971.0 L 1650.0,915.5" fill="none" stroke="rgba(255,239,190,.10)" stroke-width="1.25"/>
<rect x="36" y="32" width="780" height="118" rx="26" fill="rgba(23,15,10,.78)" stroke="rgba(255,241,190,.24)" filter="url(#shadow)"/>
<text x="66" y="78" fill="#ffe4a2" font-size="34" font-weight="900" font-family="'Noto Sans CJK SC','Microsoft YaHei',sans-serif">四渡赤水战役 · 原创地形沙盘图</text>
<text x="66" y="116" fill="#ead2b5" font-size="20" font-family="'Noto Sans CJK SC','Microsoft YaHei',sans-serif">川黔滇交界 · 赤水河—乌江—金沙江 · 教学推演近似，不含第三方地图底图/瓦片/截图</text>
<text x="66" y="143" fill="#bfae92" font-size="16" font-family="'Noto Sans CJK SC','Microsoft YaHei',sans-serif">© 2026 江南AI工作小组 · 保留署名 · 正式展陈/出版需以史料与GIS复核</text>
<path d="M 1363.0,300.3 Q 1342.2,241.7 1327.4,227.1 Q 1312.6,212.4 1299.3,188.0 Q 1285.9,163.6 1272.6,146.5 Q 1259.3,129.4 1226.7,122.1 Q 1194.1,114.8 1170.4,90.3 Q 1146.7,65.9 1121.5,45.2 T 1096.3,24.4" fill="none" stroke="rgba(36,98,150,.70)" stroke-width="18" stroke-linecap="round" stroke-linejoin="round"/><path d="M 1363.0,300.3 Q 1342.2,241.7 1327.4,227.1 Q 1312.6,212.4 1299.3,188.0 Q 1285.9,163.6 1272.6,146.5 Q 1259.3,129.4 1226.7,122.1 Q 1194.1,114.8 1170.4,90.3 Q 1146.7,65.9 1121.5,45.2 T 1096.3,24.4" fill="none" stroke="#84d4ff" stroke-width="6" stroke-linecap="round" stroke-linejoin="round" opacity=".86"/><path d="M 1146.7,446.9 Q 1244.4,427.3 1288.9,427.3 Q 1333.3,427.3 1388.1,421.2 Q 1443.0,415.1 1491.9,402.9 T 1540.7,390.7" fill="none" stroke="rgba(36,98,150,.70)" stroke-width="18" stroke-linecap="round" stroke-linejoin="round"/><path d="M 1146.7,446.9 Q 1244.4,427.3 1288.9,427.3 Q 1333.3,427.3 1388.1,421.2 Q 1443.0,415.1 1491.9,402.9 T 1540.7,390.7" fill="none" stroke="#84d4ff" stroke-width="6" stroke-linecap="round" stroke-linejoin="round" opacity=".86"/><path d="M 32.6,683.7 Q 154.1,654.4 217.8,663.0 Q 281.5,671.5 370.4,653.2 Q 459.3,634.9 563.0,641.0 T 666.7,647.1" fill="none" stroke="rgba(36,98,150,.70)" stroke-width="18" stroke-linecap="round" stroke-linejoin="round"/><path d="M 32.6,683.7 Q 154.1,654.4 217.8,663.0 Q 281.5,671.5 370.4,653.2 Q 459.3,634.9 563.0,641.0 T 666.7,647.1" fill="none" stroke="#84d4ff" stroke-width="6" stroke-linecap="round" stroke-linejoin="round" opacity=".86"/><text x="1268.1" y="195.3" fill="#b9e7ff" font-size="24" font-weight="900" paint-order="stroke" stroke="#16231c" stroke-width="2" font-family="'Noto Sans CJK SC','Microsoft YaHei',sans-serif">赤水河</text><text x="1377.8" y="439.5" fill="#b9e7ff" font-size="24" font-weight="900" paint-order="stroke" stroke="#16231c" stroke-width="2" font-family="'Noto Sans CJK SC','Microsoft YaHei',sans-serif">乌江</text><text x="243.0" y="691.0" fill="#b9e7ff" font-size="24" font-weight="900" paint-order="stroke" stroke="#16231c" stroke-width="2" font-family="'Noto Sans CJK SC','Microsoft YaHei',sans-serif">金沙江</text><path d="M 1416.3,537.2 Q 1504.3,274.7 1398.1,200.8 Q 1291.9,127.0 1234.1,162.4 T 1176.3,197.8" fill="none" stroke="#4ca3ff" stroke-width="8" stroke-dasharray="20 18" opacity=".70" marker-end="url(#arrowB)"/><path d="M 1416.3,537.2 Q 1443.0,415.1 1420.7,348.0 Q 1398.5,280.8 1364.4,252.7 T 1330.4,224.7" fill="none" stroke="#4ca3ff" stroke-width="8" stroke-dasharray="20 18" opacity=".70" marker-end="url(#arrowB)"/><path d="M 1140.7,63.5 Q 1259.3,129.4 1272.6,146.5 T 1285.9,163.6" fill="none" stroke="#4ca3ff" stroke-width="8" stroke-dasharray="20 18" opacity=".70" marker-end="url(#arrowB)"/><path d="M 1504.3,274.7 Q 1475.6,175.8 1383.7,151.4 Q 1291.9,127.0 1275.6,128.2 Q 1259.3,129.4 1217.8,163.6 Q 1176.3,197.8 1062.2,221.0 Q 948.1,244.2 1091.9,207.6 Q 1235.6,170.9 1355.6,173.4 Q 1475.6,175.8 1484.4,179.5 Q 1493.3,183.1 1498.8,228.9 Q 1504.3,274.7 1451.4,277.8 Q 1398.5,280.8 1364.4,252.7 Q 1330.4,224.7 1336.3,233.2 Q 1342.2,241.7 1259.3,219.8 Q 1176.3,197.8 1205.9,184.4 Q 1235.6,170.9 1369.9,222.8 Q 1504.3,274.7 1473.6,344.9 Q 1443.0,415.1 1429.6,476.2 Q 1416.3,537.2 997.0,678.8 Q 577.8,820.5 434.1,894.9 Q 290.4,969.4 222.2,811.9 T 154.1,654.4" fill="none" stroke="rgba(0,0,0,.45)" stroke-width="18" stroke-linecap="round" stroke-linejoin="round"/><path d="M 1504.3,274.7 Q 1475.6,175.8 1383.7,151.4 Q 1291.9,127.0 1275.6,128.2 Q 1259.3,129.4 1217.8,163.6 Q 1176.3,197.8 1062.2,221.0 Q 948.1,244.2 1091.9,207.6 Q 1235.6,170.9 1355.6,173.4 Q 1475.6,175.8 1484.4,179.5 Q 1493.3,183.1 1498.8,228.9 Q 1504.3,274.7 1451.4,277.8 Q 1398.5,280.8 1364.4,252.7 Q 1330.4,224.7 1336.3,233.2 Q 1342.2,241.7 1259.3,219.8 Q 1176.3,197.8 1205.9,184.4 Q 1235.6,170.9 1369.9,222.8 Q 1504.3,274.7 1473.6,344.9 Q 1443.0,415.1 1429.6,476.2 Q 1416.3,537.2 997.0,678.8 Q 577.8,820.5 434.1,894.9 Q 290.4,969.4 222.2,811.9 T 154.1,654.4" fill="none" stroke="#e64c3c" stroke-width="10" stroke-linecap="round" stroke-linejoin="round" marker-end="url(#arrowR)" filter="url(#soft)"/><circle cx="1504.3" cy="274.7" r="23" fill="none" stroke="#fff0bb" stroke-width="3" opacity=".22"/><circle cx="1504.3" cy="274.7" r="10" fill="#fff0bb" stroke="#1b100a" stroke-width="3"/><text x="1518.3" y="298.7" fill="#f8e8cf" font-size="22" font-weight="800" paint-order="stroke" stroke="#150e0a" stroke-width="2" font-family="'Noto Sans CJK SC','Microsoft YaHei',sans-serif">遵义</text><circle cx="1493.3" cy="183.1" r="7" fill="#e9d2b8" stroke="#1b100a" stroke-width="3"/><text x="1505.3" y="171.1" fill="#f8e8cf" font-size="22" font-weight="800" paint-order="stroke" stroke="#150e0a" stroke-width="2" font-family="'Noto Sans CJK SC','Microsoft YaHei',sans-serif">娄山关</text><circle cx="1475.6" cy="175.8" r="7" fill="#e9d2b8" stroke="#1b100a" stroke-width="3"/><text x="1487.6" y="163.8" fill="#f8e8cf" font-size="22" font-weight="800" paint-order="stroke" stroke="#150e0a" stroke-width="2" font-family="'Noto Sans CJK SC','Microsoft YaHei',sans-serif">桐梓</text><circle cx="1291.9" cy="127.0" r="7" fill="#e9d2b8" stroke="#1b100a" stroke-width="3"/><text x="1303.9" y="115.0" fill="#f8e8cf" font-size="22" font-weight="800" paint-order="stroke" stroke="#150e0a" stroke-width="2" font-family="'Noto Sans CJK SC','Microsoft YaHei',sans-serif">习水</text><circle cx="1259.3" cy="129.4" r="23" fill="none" stroke="#f3c66b" stroke-width="3" opacity=".22"/><circle cx="1259.3" cy="129.4" r="10" fill="#f3c66b" stroke="#1b100a" stroke-width="3"/><text x="1271.3" y="117.4" fill="#f8e8cf" font-size="22" font-weight="800" paint-order="stroke" stroke="#150e0a" stroke-width="2" font-family="'Noto Sans CJK SC','Microsoft YaHei',sans-serif">土城渡口</text><circle cx="1265.2" cy="122.1" r="22" fill="none" stroke="#ff765f" stroke-width="3" opacity=".22"/><circle cx="1265.2" cy="122.1" r="9" fill="#ff765f" stroke="#1b100a" stroke-width="3"/><text x="1277.2" y="110.1" fill="#f8e8cf" font-size="22" font-weight="800" paint-order="stroke" stroke="#150e0a" stroke-width="2" font-family="'Noto Sans CJK SC','Microsoft YaHei',sans-serif">青杠坡</text><circle cx="1140.7" cy="63.5" r="7" fill="#e9d2b8" stroke="#1b100a" stroke-width="3"/><text x="1152.7" y="51.5" fill="#f8e8cf" font-size="22" font-weight="800" paint-order="stroke" stroke="#150e0a" stroke-width="2" font-family="'Noto Sans CJK SC','Microsoft YaHei',sans-serif">赤水</text><circle cx="1235.6" cy="170.9" r="23" fill="none" stroke="#f3c66b" stroke-width="3" opacity=".22"/><circle cx="1235.6" cy="170.9" r="10" fill="#f3c66b" stroke="#1b100a" stroke-width="3"/><text x="1247.6" y="158.9" fill="#f8e8cf" font-size="22" font-weight="800" paint-order="stroke" stroke="#150e0a" stroke-width="2" font-family="'Noto Sans CJK SC','Microsoft YaHei',sans-serif">太平渡</text><circle cx="1285.9" cy="163.6" r="23" fill="none" stroke="#f3c66b" stroke-width="3" opacity=".22"/><circle cx="1285.9" cy="163.6" r="10" fill="#f3c66b" stroke="#1b100a" stroke-width="3"/><text x="1297.9" y="151.6" fill="#f8e8cf" font-size="22" font-weight="800" paint-order="stroke" stroke="#150e0a" stroke-width="2" font-family="'Noto Sans CJK SC','Microsoft YaHei',sans-serif">二郎滩</text><circle cx="1342.2" cy="241.7" r="23" fill="none" stroke="#f3c66b" stroke-width="3" opacity=".22"/><circle cx="1342.2" cy="241.7" r="10" fill="#f3c66b" stroke="#1b100a" stroke-width="3"/><text x="1356.2" y="265.7" fill="#f8e8cf" font-size="22" font-weight="800" paint-order="stroke" stroke="#150e0a" stroke-width="2" font-family="'Noto Sans CJK SC','Microsoft YaHei',sans-serif">茅台渡口</text><circle cx="1348.1" cy="258.8" r="7" fill="#e9d2b8" stroke="#1b100a" stroke-width="3"/><text x="1362.1" y="282.8" fill="#f8e8cf" font-size="22" font-weight="800" paint-order="stroke" stroke="#150e0a" stroke-width="2" font-family="'Noto Sans CJK SC','Microsoft YaHei',sans-serif">仁怀</text><circle cx="1398.5" cy="280.8" r="23" fill="none" stroke="#fff0bb" stroke-width="3" opacity=".22"/><circle cx="1398.5" cy="280.8" r="10" fill="#fff0bb" stroke="#1b100a" stroke-width="3"/><text x="1412.5" y="304.8" fill="#f8e8cf" font-size="22" font-weight="800" paint-order="stroke" stroke="#150e0a" stroke-width="2" font-family="'Noto Sans CJK SC','Microsoft YaHei',sans-serif">苟坝</text><circle cx="1330.4" cy="224.7" r="22" fill="none" stroke="#ff765f" stroke-width="3" opacity=".22"/><circle cx="1330.4" cy="224.7" r="9" fill="#ff765f" stroke="#1b100a" stroke-width="3"/><text x="1344.4" y="248.7" fill="#f8e8cf" font-size="22" font-weight="800" paint-order="stroke" stroke="#150e0a" stroke-width="2" font-family="'Noto Sans CJK SC','Microsoft YaHei',sans-serif">鲁班场</text><circle cx="1294.8" cy="339.4" r="7" fill="#e9d2b8" stroke="#1b100a" stroke-width="3"/><text x="1306.8" y="327.4" fill="#f8e8cf" font-size="22" font-weight="800" paint-order="stroke" stroke="#150e0a" stroke-width="2" font-family="'Noto Sans CJK SC','Microsoft YaHei',sans-serif">打鼓新场</text><circle cx="1443.0" cy="415.1" r="23" fill="none" stroke="#f3c66b" stroke-width="3" opacity=".22"/><circle cx="1443.0" cy="415.1" r="10" fill="#f3c66b" stroke="#1b100a" stroke-width="3"/><text x="1455.0" y="403.1" fill="#f8e8cf" font-size="22" font-weight="800" paint-order="stroke" stroke="#150e0a" stroke-width="2" font-family="'Noto Sans CJK SC','Microsoft YaHei',sans-serif">乌江渡</text><circle cx="1416.3" cy="537.2" r="9" fill="#4ca3ff" stroke="#1b100a" stroke-width="3"/><text x="1428.3" y="565.2" fill="#f8e8cf" font-size="22" font-weight="800" paint-order="stroke" stroke="#150e0a" stroke-width="2" font-family="'Noto Sans CJK SC','Microsoft YaHei',sans-serif">贵阳</text><circle cx="948.1" cy="244.2" r="23" fill="none" stroke="#fff0bb" stroke-width="3" opacity=".22"/><circle cx="948.1" cy="244.2" r="10" fill="#fff0bb" stroke="#1b100a" stroke-width="3"/><text x="960.1" y="232.2" fill="#f8e8cf" font-size="22" font-weight="800" paint-order="stroke" stroke="#150e0a" stroke-width="2" font-family="'Noto Sans CJK SC','Microsoft YaHei',sans-serif">扎西/威信</text><circle cx="1176.3" cy="197.8" r="7" fill="#e9d2b8" stroke="#1b100a" stroke-width="3"/><text x="1188.3" y="185.8" fill="#f8e8cf" font-size="22" font-weight="800" paint-order="stroke" stroke="#150e0a" stroke-width="2" font-family="'Noto Sans CJK SC','Microsoft YaHei',sans-serif">古蔺</text><circle cx="894.8" cy="344.3" r="8" fill="#b78cff" stroke="#1b100a" stroke-width="3"/><text x="906.8" y="332.3" fill="#f8e8cf" font-size="22" font-weight="800" paint-order="stroke" stroke="#150e0a" stroke-width="2" font-family="'Noto Sans CJK SC','Microsoft YaHei',sans-serif">镇雄</text><circle cx="577.8" cy="820.5" r="7" fill="#e9d2b8" stroke="#1b100a" stroke-width="3"/><text x="589.8" y="848.5" fill="#f8e8cf" font-size="22" font-weight="800" paint-order="stroke" stroke="#150e0a" stroke-width="2" font-family="'Noto Sans CJK SC','Microsoft YaHei',sans-serif">曲靖</text><circle cx="290.4" cy="969.4" r="8" fill="#b78cff" stroke="#1b100a" stroke-width="3"/><text x="302.4" y="997.4" fill="#f8e8cf" font-size="22" font-weight="800" paint-order="stroke" stroke="#150e0a" stroke-width="2" font-family="'Noto Sans CJK SC','Microsoft YaHei',sans-serif">昆明方向</text><circle cx="154.1" cy="654.4" r="23" fill="none" stroke="#f3c66b" stroke-width="3" opacity=".22"/><circle cx="154.1" cy="654.4" r="10" fill="#f3c66b" stroke="#1b100a" stroke-width="3"/><text x="166.1" y="642.4" fill="#f8e8cf" font-size="22" font-weight="800" paint-order="stroke" stroke="#150e0a" stroke-width="2" font-family="'Noto Sans CJK SC','Microsoft YaHei',sans-serif">皎平渡</text>
<g filter="url(#shadow)">
<rect x="1150" y="760" width="390" height="220" rx="22" fill="rgba(22,14,10,.80)" stroke="rgba(255,241,190,.20)"/>
<text x="1180" y="805" fill="#ffe4a2" font-size="26" font-weight="900" font-family="'Noto Sans CJK SC','Microsoft YaHei',sans-serif">图例与边界</text>
<line x1="1182" y1="840" x2="1265" y2="840" stroke="#e64c3c" stroke-width="10" marker-end="url(#arrowR)"/><text x="1285" y="848" fill="#ead2b5" font-size="20" font-family="'Noto Sans CJK SC','Microsoft YaHei',sans-serif">红军主力机动路线</text>
<line x1="1182" y1="884" x2="1265" y2="884" stroke="#4ca3ff" stroke-width="8" stroke-dasharray="18 14" marker-end="url(#arrowB)"/><text x="1285" y="892" fill="#ead2b5" font-size="20" font-family="'Noto Sans CJK SC','Microsoft YaHei',sans-serif">敌军围堵/误判方向</text>
<circle cx="1198" cy="925" r="10" fill="#f3c66b" stroke="#1b100a" stroke-width="3"/><text x="1225" y="933" fill="#ead2b5" font-size="20" font-family="'Noto Sans CJK SC','Microsoft YaHei',sans-serif">渡口/水障开关</text>
<text x="1180" y="965" fill="#c8b399" font-size="16" font-family="'Noto Sans CJK SC','Microsoft YaHei',sans-serif">说明：本图为原创教学沙盘，地形纹理为示意生成，</text>
</g>
<text x="1180" y="995" fill="#c8b399" font-size="16" font-family="'Noto Sans CJK SC','Microsoft YaHei',sans-serif">不是百度、Google、OSM或其他地图截图。</text>
</svg>